<svg xmlns:x="http://ns.adobe.com/Extensibility/1.0/" xmlns:i="http://ns.adobe.com/AdobeIllustrator/10.0/" xmlns:graph="http://ns.adobe.com/Graphs/1.0/" xmlns="http://www.w3.org/2000/svg" xmlns:xlink="http://www.w3.org/1999/xlink" version="1.1" x="0px" y="0px" viewBox="0 0 64 64" enable-background="new 0 0 64 64" xml:space="preserve"><metadata><sfw xmlns="http://ns.adobe.com/SaveForWeb/1.0/"><slices></slices><sliceSourceBounds y="-8160" x="-8165" width="16389" height="16384" bottomLeftOrigin="true"></sliceSourceBounds><optimizationSettings><targetSettings fileFormat="PNG24Format" targetSettingsID="0"><PNG24Format transparency="true" matteColor="#FFFFFF" noMatteColor="false" interlaced="false" filtered="false"></PNG24Format></targetSettings></optimizationSettings></sfw></metadata><g><g><path d="M32,33c7.168,0,13-5.832,13-13S39.168,7,32,7c-7.168,0-13,5.832-13,13S24.832,33,32,33z M32,9c6.065,0,11,4.935,11,11    s-4.935,11-11,11s-11-4.935-11-11S25.935,9,32,9z"></path><path d="M47.585,32.46c-0.415-0.333-1.02-0.282-1.373,0.118C42.598,36.659,37.417,39,32,39c-5.417,0-10.598-2.341-14.213-6.422    c-0.353-0.399-0.957-0.452-1.373-0.118C10.432,37.237,7,44.359,7,52v4c0,0.553,0.448,1,1,1h48c0.553,0,1-0.447,1-1v-4    C57,44.36,53.568,37.238,47.585,32.46z M55,55H9v-3c0-6.72,2.886-13.004,7.95-17.385C20.901,38.685,26.333,41,32,41    c5.667,0,11.099-2.315,15.05-6.385C52.114,38.997,55,45.281,55,52V55z"></path></g></g></svg>